<svg width="144" height="24" viewBox="0 0 144 24" fill="none" xmlns="http://www.w3.org/2000/svg">
<g clip-path="url(#clip0_2811_64505)">
<path d="M35.9389 10.585C35.8621 9.88915 35.7281 9.21515 35.5372 8.56569C35.3464 7.91607 35.0991 7.29069 34.7954 6.69234C34.1373 5.39544 33.2335 4.25622 32.1042 3.29842C31.9428 3.16172 31.7768 3.02844 31.6064 2.89905C30.6472 2.1713 29.5522 1.57932 28.3838 1.14375C27.8831 0.956886 27.3689 0.79891 26.8461 0.67107C25.8006 0.415699 24.7207 0.281643 23.6457 0.281643C22.6454 0.281643 21.6071 0.37096 20.533 0.549129C20.2643 0.593712 19.9935 0.643887 19.7205 0.699497C19.1744 0.810719 18.6197 0.944151 18.0561 1.09964C16.6473 1.48845 15.1847 2.01534 13.672 2.67878C12.462 3.20972 11.22 3.82826 9.948 4.53349C7.48588 5.89889 5.50742 7.26677 4.4764 8.01595C4.42953 8.04982 4.38475 8.08259 4.34175 8.11413C3.95572 8.39699 3.73167 8.57143 3.70161 8.59489L-0.180836 11.6311C-0.238675 11.6763 -0.268354 11.7412 -0.26955 11.8065C-0.270181 11.8391 -0.263747 11.8719 -0.250039 11.9023C-0.236347 11.9329 -0.215574 11.9612 -0.187463 11.9846L1.63165 13.5153C1.69761 13.5709 1.78749 13.5863 1.86686 13.5607C1.89321 13.5521 1.91859 13.5391 1.94122 13.5215L3.53995 12.2846L5.52553 10.7485C5.55673 10.7239 5.811 10.5259 6.24908 10.2079C6.86239 9.7627 7.83602 9.08233 9.06247 8.31404C9.76323 7.87507 10.5466 7.40735 11.3922 6.93824C16.0353 4.36355 20.1579 3.05811 23.6457 3.05811C23.7141 3.05811 23.7827 3.06091 23.851 3.0623C23.9225 3.06386 23.9938 3.06386 24.0652 3.06665C24.5875 3.08825 25.109 3.14945 25.6223 3.24793C26.3919 3.39581 27.1429 3.62788 27.8503 3.9356C28.5575 4.24347 29.2211 4.627 29.8158 5.07841C29.9224 5.15902 30.025 5.2429 30.1267 5.32756C30.2686 5.44577 30.4073 5.56647 30.5399 5.69198C30.7673 5.90727 30.9805 6.1336 31.1795 6.37002C31.4781 6.72465 31.7443 7.10258 31.9768 7.50226C32.0544 7.63554 32.1283 7.77115 32.1983 7.90924C32.2406 7.99265 32.2779 8.07871 32.3174 8.16383C32.4215 8.38767 32.519 8.61508 32.603 8.84949C32.6609 9.01119 32.7141 9.17538 32.7624 9.34175C33.0042 10.1737 33.1261 11.0646 33.1261 12.0045C33.1261 12.898 33.0133 13.7457 32.7949 14.5419C32.6455 15.0862 32.4483 15.6074 32.1983 16.0999C32.1283 16.2379 32.0544 16.3735 31.9768 16.5069C31.6667 17.0397 31.297 17.534 30.8704 17.986C30.5505 18.3253 30.1986 18.6406 29.816 18.9308C29.5638 19.1223 29.2981 19.2997 29.0231 19.466C28.8784 19.5537 28.7308 19.6377 28.5805 19.7182C28.4175 19.8053 28.2527 19.8898 28.0839 19.9684C26.72 20.6031 25.1782 20.9511 23.6457 20.9511C20.1579 20.9511 16.0353 19.6456 11.3922 17.0708C11.1331 16.9271 10.7936 16.7293 10.4491 16.5257C10.2425 16.4035 10.0342 16.279 9.84034 16.1625C9.32354 15.8522 8.91035 15.5991 8.91035 15.5991C9.72637 14.8677 10.9367 13.8681 12.4439 12.8711C12.6641 12.7254 12.892 12.5802 13.1245 12.4356C13.3262 12.3101 13.5309 12.185 13.7413 12.0615C13.9888 11.9163 14.2436 11.7734 14.5025 11.6325C14.7719 11.4862 15.0471 11.3426 15.3283 11.2027C17.7503 9.99773 20.5988 9.07379 23.6457 9.07379C24.2611 9.07379 25.2302 9.26392 25.9365 9.79983C25.9666 9.82266 25.9971 9.8469 26.0275 9.87206C26.1342 9.95967 26.2423 10.0625 26.3439 10.1889C26.3961 10.2539 26.4465 10.325 26.4942 10.4036C26.5657 10.5212 26.6308 10.6553 26.6859 10.8094C26.7087 10.8732 26.7289 10.9419 26.748 11.0127C26.8211 11.2845 26.8658 11.6092 26.8658 12.0045C26.8658 12.4834 26.8007 12.8596 26.6979 13.1619C26.6581 13.279 26.6132 13.3862 26.5634 13.4824C26.5412 13.5252 26.518 13.5664 26.4942 13.6055C26.4638 13.6557 26.4318 13.7019 26.3993 13.7463C26.3434 13.823 26.2849 13.8917 26.2252 13.954C26.1977 13.9825 26.1701 14.0099 26.1423 14.036C26.0736 14.1003 26.0044 14.1579 25.9365 14.2093C25.2302 14.7452 24.2611 14.9355 23.6457 14.9355C23.0867 14.9355 22.472 14.8715 21.8103 14.7465C21.3692 14.6632 20.9074 14.5525 20.4272 14.4152C19.7072 14.2093 18.9465 13.9437 18.1539 13.6206C18.1213 13.6073 18.0864 13.601 18.0514 13.6021C18.0169 13.6031 17.9823 13.6113 17.9507 13.6268C17.0256 14.0779 16.1609 14.5717 15.3696 15.0732C15.3498 15.0856 15.3328 15.1002 15.3186 15.1162C15.2187 15.2279 15.2518 15.4107 15.4025 15.4769L15.8467 15.6715L16.2909 15.8661C16.6402 16.0192 16.9847 16.1628 17.3239 16.297C17.6632 16.4311 17.9973 16.556 18.3261 16.6711C18.8193 16.8441 19.3007 16.9954 19.7696 17.1255C20.3951 17.2987 20.9985 17.4339 21.5789 17.5306C22.3045 17.6513 22.9941 17.712 23.6457 17.712C23.7143 17.712 23.8042 17.7104 23.9121 17.7055C23.9661 17.703 24.0246 17.6996 24.0872 17.6949C24.9016 17.6362 26.4119 17.3861 27.727 16.3885C27.7847 16.3449 27.8367 16.2974 27.8918 16.252C28.0719 16.104 28.2428 15.9497 28.3967 15.784C28.4188 15.7604 28.4382 15.7352 28.4599 15.7111C29.038 15.0645 29.4258 14.2904 29.6159 13.3929C29.7078 12.9583 29.7552 12.4958 29.7552 12.0045C29.7552 10.1167 29.0729 8.64165 27.727 7.62078C26.7344 6.86756 25.6316 6.54136 24.7999 6.40093C24.6074 6.36847 24.4293 6.34548 24.2707 6.32994C23.997 6.30323 23.7801 6.29732 23.6457 6.29732C21.3039 6.29732 18.8893 6.75572 16.4687 7.66008C15.7537 7.9271 15.0374 8.23327 14.3228 8.57703C14.0847 8.69151 13.8466 8.81034 13.6089 8.93321C13.2299 9.12909 12.8521 9.33817 12.4748 9.55471C12.241 9.68907 12.0078 9.82717 11.7748 9.9693C11.4409 10.1729 11.1075 10.3819 10.7761 10.6015C10.0498 11.0829 9.38787 11.5637 8.79752 12.0199C8.60079 12.1721 8.41198 12.3212 8.23142 12.4671C7.50948 13.0501 6.91994 13.5754 6.48105 13.9861C5.92222 14.5093 5.60797 14.8467 5.57628 14.881L5.52213 14.9394L4.90866 15.5991L4.68397 15.8405C4.6602 15.8663 4.64355 15.8955 4.63353 15.9261C4.60395 16.0181 4.63612 16.1229 4.72357 16.183L5.75701 16.8929L5.79015 16.9154L5.82345 16.9378C6.17601 17.1767 6.53116 17.4116 6.88825 17.6415C7.14091 17.8044 7.39438 17.965 7.64866 18.1232C8.06039 18.3793 8.47422 18.6271 8.88869 18.8699C9.08057 18.982 9.27245 19.0928 9.4645 19.202C9.62583 19.2936 9.78683 19.3862 9.948 19.4755C12.1739 20.71 14.3082 21.6782 16.3399 22.3769C16.6302 22.4765 16.9183 22.5709 17.2044 22.6596C17.7765 22.8373 18.34 22.9928 18.8948 23.1262C19.4497 23.2595 19.9958 23.3709 20.533 23.46C21.6071 23.6382 22.6454 23.7275 23.6457 23.7275C24.7207 23.7275 25.8006 23.5934 26.8461 23.3379C27.8917 23.0827 28.903 22.7059 29.8406 22.2209C30.4658 21.8975 31.0583 21.5258 31.6064 21.1101C32.1177 20.7221 32.5885 20.3 33.0164 19.846C33.3018 19.5433 33.5683 19.2262 33.8154 18.8957C33.9389 18.7302 34.0577 18.5614 34.1715 18.3893C34.3993 18.045 34.6073 17.6873 34.7954 17.3168C35.4072 16.1113 35.7906 14.7959 35.9418 13.3929C35.9906 12.939 36.0157 12.4763 36.0157 12.0045C36.0157 11.5222 35.99 11.0487 35.9389 10.585Z" fill="#146EE6"/>
<path d="M122.326 11.9854C121.395 17.6107 119.786 19.2683 114.843 19.2683C114.64 19.2683 114.445 19.2647 114.255 19.259C114.232 19.2621 114.211 19.2683 114.185 19.2683H102.863C102.67 19.2683 102.592 19.1752 102.611 18.9702L104.899 5.13104C104.918 4.94402 105.034 4.85112 105.228 4.85112H107.69C107.884 4.85112 107.961 4.94402 107.942 5.13104L106.042 16.7163H106.845H109.65H115.19V16.7141C115.216 16.7152 115.242 16.7163 115.27 16.7163C115.938 16.7163 116.484 16.6464 116.935 16.4851C117.16 16.4045 117.362 16.3012 117.544 16.1721C117.635 16.1077 117.721 16.0365 117.803 15.9592C118.537 15.2608 118.905 14.0178 119.243 11.9854C119.244 11.9801 119.245 11.9756 119.246 11.9706C119.295 11.6693 119.336 11.3841 119.374 11.1051C119.386 11.0176 119.397 10.931 119.408 10.8455C119.419 10.7498 119.427 10.6611 119.438 10.5681C119.698 8.0369 119.13 7.19778 116.84 7.19778C116.673 7.19778 116.513 7.20228 116.361 7.21145C114.228 7.34069 113.506 8.40613 112.961 11.33C112.922 11.5389 112.884 11.7573 112.847 11.9854C112.803 12.2465 112.766 12.491 112.734 12.7263C112.724 12.7931 112.717 12.8553 112.708 12.9197C112.686 13.0914 112.667 13.2565 112.651 13.4143C112.645 13.4761 112.639 13.537 112.634 13.5968C112.619 13.7669 112.609 13.9286 112.603 14.0826C112.602 14.1141 112.6 14.1483 112.599 14.1792C112.59 14.5538 112.61 14.8788 112.664 15.16C112.668 15.1847 112.674 15.2077 112.679 15.232C112.705 15.3479 112.736 15.456 112.774 15.5569C112.781 15.5766 112.788 15.5968 112.796 15.6159C112.893 15.8511 113.026 16.0446 113.204 16.1987C113.253 16.2405 113.305 16.279 113.36 16.3152H109.563C109.556 16.2764 109.548 16.2388 109.541 16.1989H109.541C109.541 16.1984 109.541 16.1976 109.541 16.1971C109.534 16.1521 109.53 16.103 109.524 16.0572C109.506 15.9137 109.491 15.7641 109.481 15.609C109.477 15.5444 109.473 15.4804 109.47 15.4143C109.462 15.2207 109.46 15.0192 109.465 14.8081C109.466 14.7455 109.47 14.6795 109.472 14.6152C109.479 14.4237 109.491 14.2252 109.507 14.0195C109.511 13.9681 109.514 13.9185 109.518 13.8659C109.54 13.615 109.57 13.3509 109.605 13.0785C109.613 13.0123 109.623 12.9443 109.632 12.8768C109.671 12.5901 109.713 12.2959 109.765 11.9854C109.823 11.6314 109.884 11.293 109.948 10.9698C110.792 6.71204 112.209 5.05787 115.678 4.71707C116.16 4.66985 116.681 4.64686 117.247 4.64686C117.247 4.64686 117.247 4.64686 117.247 4.64686C120.645 4.64686 122.211 5.43907 122.555 7.77423C122.712 8.83533 122.616 10.2156 122.326 11.9854ZM144.251 5.14921L139.87 17.1447C139.312 18.6395 138.931 19.1408 137.862 19.2962C137.519 19.3463 137.107 19.3612 136.595 19.3612C134.172 19.3612 133.958 19.1185 133.803 17.1447L133.222 10.1036V10.1035L130.334 17.1447C129.74 18.5511 129.408 19.0766 128.399 19.2638V19.2639C127.992 19.3391 127.478 19.3613 126.786 19.3613C124.674 19.3613 124.325 19.1185 124.266 17.1448L123.821 5.14937C123.821 4.926 123.918 4.85112 124.131 4.85112H126.689C126.864 4.85112 126.903 4.926 126.922 5.14937L127.257 15.904V15.9039C127.283 16.2952 127.365 16.3806 127.601 16.3806C127.911 16.3806 127.988 16.2877 128.182 15.8219L132.408 5.6525C132.505 5.42819 132.679 5.35441 132.853 5.35441H135.141C135.279 5.35441 135.402 5.40412 135.458 5.5346C135.473 5.56893 135.486 5.60543 135.49 5.6525L135.96 11.1365L136.362 15.8219C136.401 16.2877 136.459 16.3806 136.769 16.3806C137.021 16.3806 137.118 16.2877 137.292 15.8219L141.15 5.14921C141.227 4.92584 141.285 4.85112 141.46 4.85112H144.018C144.232 4.85112 144.309 4.92584 144.251 5.14921ZM58.3629 5.13104L57.4712 18.97C57.4712 19.1754 57.3356 19.2683 57.1418 19.2683H54.6802C54.4862 19.2683 54.428 19.1754 54.428 18.97L55.0678 10.0299L54.6439 10.7655L50.6966 17.6164L50.1636 18.5413C50.0666 18.7276 49.9117 18.8205 49.7179 18.8205H47.8764C47.702 18.8205 47.5856 18.7276 47.5083 18.5413L45.4539 10.0314L45.4534 10.0297L43.108 18.97C43.0874 19.0786 43.049 19.1536 42.9905 19.2024C42.9381 19.2458 42.8697 19.2681 42.7785 19.2681H40.3169C40.1231 19.2681 40.0259 19.1754 40.0649 18.97L43.7476 5.14921C43.7866 4.96312 43.8448 4.85112 44.0384 4.85112H46.384C46.8093 4.85112 47.0502 4.92537 47.2047 5.15589C47.2755 5.26136 47.33 5.39651 47.3725 5.57763L49.2302 13.554L49.4853 14.6484L54.5832 5.57763C54.9322 4.98145 55.184 4.83279 55.8043 4.83279H58.1497C58.3092 4.83279 58.3587 5.04778 58.3587 5.04778C58.3587 5.04778 58.3629 5.10153 58.3629 5.13104ZM80.8322 5.13088L80.5026 7.12399C80.4832 7.30993 80.3476 7.40282 80.1537 7.40282H76.1026L75.6582 10.1092L74.2029 18.97C74.1642 19.1754 74.048 19.2681 73.854 19.2681H71.3922C71.1986 19.2681 71.121 19.1754 71.1596 18.97L73.0593 7.40282H69.9742H69.0082H63.5539L62.9726 10.9232H69.3305C69.5243 10.9232 69.6212 11.0162 69.6019 11.2031L69.2725 13.1033C69.2531 13.2891 69.1173 13.3822 68.9236 13.3822H62.5655L62.5014 13.7766L62.0229 16.7163H68.9817C69.1755 16.7163 69.2531 16.8093 69.2335 16.9951L68.8847 18.9882C68.8651 19.1754 68.749 19.2681 68.5552 19.2681H58.8438C58.65 19.2681 58.5724 19.1754 58.5918 18.97L60.879 5.13088C60.8984 4.94386 61.0146 4.85112 61.2088 4.85112H66.022H69.4348H70.3812H73.4785H76.2209H80.5802C80.774 4.85112 80.8516 4.94386 80.8322 5.13088ZM101.486 11.2213L101.156 13.1213C101.137 13.3074 101.001 13.4003 100.807 13.4003H94.8211H94.8178L93.8872 18.9702C93.868 19.1754 93.7516 19.2683 93.5578 19.2683H91.0961C90.9023 19.2683 90.8249 19.1754 90.844 18.9702L93.1313 5.13104C93.1507 4.94402 93.267 4.85112 93.4608 4.85112H103.673C103.867 4.85112 103.964 4.94402 103.945 5.13104L103.615 7.12399C103.576 7.31009 103.46 7.40298 103.266 7.40298H95.8062L95.2249 10.9425H101.214C101.408 10.9425 101.505 11.0353 101.486 11.2213ZM62.5655 13.3823H62.5665L62.5014 13.7766L62.5655 13.3823ZM82.2903 12.6748L84.5001 7.73866C84.6035 7.49928 84.6693 7.36321 84.7578 7.28647C84.8345 7.21999 84.9281 7.19778 85.0816 7.19778C85.4692 7.19778 85.4692 7.29082 85.5274 7.73866L86.1088 12.6748H82.2903ZM87.3998 4.92382C86.9831 4.77144 86.3828 4.7399 85.4886 4.7399C83.24 4.7399 82.8136 4.94401 81.8833 6.97456L76.4558 18.9702C76.3784 19.1936 76.4364 19.2683 76.6496 19.2683H79.1113C79.3051 19.2683 79.344 19.1936 79.4409 18.9702L81.2048 15.0963H86.3801L86.8647 18.9702C86.8841 19.1936 86.8841 19.2683 87.0781 19.2683H89.5397C89.753 19.2683 89.8498 19.1936 89.8498 18.9702L88.4155 6.97456C88.2604 5.72489 88.0668 5.16816 87.3998 4.92382Z" fill="#146EE6"/>
</g>
<defs>
<clipPath id="clip0_2811_64505">
<rect width="144" height="24" fill="white"/>
</clipPath>
</defs>
</svg>
